<svg xmlns="http://www.w3.org/2000/svg" width="16" height="16">
  <path d="M 8 0 C 4.6862915 0 2 2.6862915 2 6 C 2 10 6 15 8 16 C 8.5549716 15.722514 9.2652307 15.116721 10 14.330078 L 10 10 L 12.957031 10 C 13.584249 8.6737651 14 7.2856415 14 6 C 14 2.6862915 11.313708 0 8 0 z M 8 2 A 4 4 0 0 1 12 6 A 4 4 0 0 1 8 10 A 4 4 0 0 1 4 6 A 4 4 0 0 1 8 2 z M 11 11 L 11 16 L 16 16 L 16 11 L 11 11 z M 12 12 L 13 12 L 13 13 L 14 13 L 14 12 L 15 12 L 15 14 L 14 14 L 14 15 L 13 15 L 13 14 L 12 14 L 12 12 z " fill="#c0bfbc" />
</svg>
