<?xml version="1.0" encoding="UTF-8"?>
<svg width="128" height="128" version="1.1" viewBox="0 0 128 128.00001" xmlns="http://www.w3.org/2000/svg">
<defs>
<linearGradient id="c" x1="2" x2="30" y1="27" y2="27" gradientTransform="matrix(3,0,0,3,2,37)" gradientUnits="userSpaceOnUse">
<stop stop-color="#5e5c64" offset="0"/>
<stop stop-color="#9a9996" offset=".035714"/>
<stop stop-color="#5e5c64" offset=".071429"/>
<stop stop-color="#5e5c64" offset=".92857"/>
<stop stop-color="#9a9996" offset=".96429"/>
<stop stop-color="#5e5c64" offset="1"/>
</linearGradient>
<linearGradient id="b" x1="2" x2="30" y1="27" y2="27" gradientTransform="matrix(3,0,0,3,30,0)" gradientUnits="userSpaceOnUse">
<stop stop-color="#5e5c64" offset="0"/>
<stop stop-color="#9a9996" offset=".035714"/>
<stop stop-color="#5e5c64" offset=".071429"/>
<stop stop-color="#5e5c64" offset=".92857"/>
<stop stop-color="#9a9996" offset=".96429"/>
<stop stop-color="#5e5c64" offset="1"/>
</linearGradient>
</defs>
<rect x="36" y="21" width="84" height="18" ry="3" fill="#5e5c64"/>
<rect x="36" y="39" width="84" height="18" ry="3" fill="#5e5c64"/>
<rect x="36" y="57" width="84" height="18" ry="3.1761" fill="#5e5c64"/>
<rect x="36" y="72" width="84" height="15" ry="3" fill="url(#b)"/>
<rect x="36" y="12" width="84" height="15" ry="3" fill="#9a9996"/>
<rect x="36" y="30" width="84" height="15" ry="3" fill="#9a9996"/>
<rect x="36" y="48" width="84" height="15" ry="3" fill="#9a9996"/>
<rect x="36" y="66" width="84" height="15" ry="3" fill="#9a9996"/>
<rect x="72" y="15" width="45" height="9" ry="0" fill="#3d3846"/>
<rect x="72" y="18" width="45" height="6" ry="0" fill="#5e5c64"/>
<rect x="72" y="33" width="45" height="9" ry="0" fill="#3d3846"/>
<rect x="72" y="36" width="45" height="6" ry="0" fill="#5e5c64"/>
<rect x="72" y="51" width="45" height="9" ry="0" fill="#3d3846"/>
<rect x="72" y="54" width="45" height="6" ry="0" fill="#5e5c64"/>
<rect x="72" y="69" width="45" height="9" ry="0" fill="#3d3846"/>
<rect x="72" y="72" width="45" height="6" ry="0" fill="#5e5c64"/>
<rect x="42" y="15" width="3" height="6" ry="1.5" fill="#5e5c64"/>
<rect x="42" y="18" width="3" height="3" ry="1.5" fill="#f6d32d"/>
<rect x="48" y="15" width="3" height="6" ry="1.5" fill="#5e5c64"/>
<rect x="48" y="18" width="3" height="3" ry="1.5" fill="#33d17a"/>
<rect x="42" y="33" width="3" height="6" ry="1.5" fill="#5e5c64"/>
<rect x="42" y="36" width="3" height="3" ry="1.5" fill="#33d17a"/>
<rect x="48" y="33" width="3" height="6" ry="1.5" fill="#5e5c64"/>
<rect x="48" y="36" width="3" height="3" ry="1.5" fill="#e01b24"/>
<rect x="42" y="51" width="3" height="6" ry="1.5" fill="#5e5c64"/>
<rect x="42" y="54" width="3" height="3" ry="1.5" fill="#e01b24"/>
<rect x="48" y="51" width="3" height="6" ry="1.5" fill="#5e5c64"/>
<rect x="48" y="54" width="3" height="3" ry="1.5" fill="#f6d32d"/>
<rect x="42" y="69" width="3" height="6" ry="1.5" fill="#5e5c64"/>
<rect x="42" y="72" width="3" height="3" ry="1.5" fill="#f6d32d"/>
<rect x="48" y="69" width="3" height="6" ry="1.5" fill="#5e5c64"/>
<rect x="48" y="72" width="3" height="3" ry="1.5" fill="#33d17a"/>
<rect x="75" y="36" width="3" height="6" fill="#3d3846"/>
<rect x="75" y="33" width="3" height="3" fill="#241f31"/>
<rect x="81" y="36" width="3" height="6" fill="#3d3846"/>
<rect x="81" y="33" width="3" height="3" fill="#241f31"/>
<rect x="87" y="36" width="3" height="6" fill="#3d3846"/>
<rect x="87" y="33" width="3" height="3" fill="#241f31"/>
<rect x="93" y="36" width="3" height="6" fill="#3d3846"/>
<rect x="93" y="33" width="3" height="3" fill="#241f31"/>
<rect x="99" y="36" width="3" height="6" fill="#3d3846"/>
<rect x="99" y="33" width="3" height="3" fill="#241f31"/>
<rect x="105" y="36" width="3" height="6" fill="#3d3846"/>
<rect x="105" y="33" width="3" height="3" fill="#241f31"/>
<rect x="111" y="36" width="3" height="6" fill="#3d3846"/>
<rect x="111" y="33" width="3" height="3" fill="#241f31"/>
<rect x="75" y="18" width="3" height="6" fill="#3d3846"/>
<rect x="75" y="15" width="3" height="3" fill="#241f31"/>
<rect x="81" y="18" width="3" height="6" fill="#3d3846"/>
<rect x="81" y="15" width="3" height="3" fill="#241f31"/>
<rect x="87" y="18" width="3" height="6" fill="#3d3846"/>
<rect x="87" y="15" width="3" height="3" fill="#241f31"/>
<rect x="93" y="18" width="3" height="6" fill="#3d3846"/>
<rect x="93" y="15" width="3" height="3" fill="#241f31"/>
<rect x="99" y="18" width="3" height="6" fill="#3d3846"/>
<rect x="99" y="15" width="3" height="3" fill="#241f31"/>
<rect x="105" y="18" width="3" height="6" fill="#3d3846"/>
<rect x="105" y="15" width="3" height="3" fill="#241f31"/>
<rect x="111" y="18" width="3" height="6" fill="#3d3846"/>
<rect x="111" y="15" width="3" height="3" fill="#241f31"/>
<rect x="75" y="54" width="3" height="6" fill="#3d3846"/>
<rect x="75" y="51" width="3" height="3" fill="#241f31"/>
<rect x="81" y="54" width="3" height="6" fill="#3d3846"/>
<rect x="81" y="51" width="3" height="3" fill="#241f31"/>
<rect x="87" y="54" width="3" height="6" fill="#3d3846"/>
<rect x="87" y="51" width="3" height="3" fill="#241f31"/>
<rect x="93" y="54" width="3" height="6" fill="#3d3846"/>
<rect x="93" y="51" width="3" height="3" fill="#241f31"/>
<rect x="99" y="54" width="3" height="6" fill="#3d3846"/>
<rect x="99" y="51" width="3" height="3" fill="#241f31"/>
<rect x="105" y="54" width="3" height="6" fill="#3d3846"/>
<rect x="105" y="51" width="3" height="3" fill="#241f31"/>
<rect x="111" y="54" width="3" height="6" fill="#3d3846"/>
<rect x="111" y="51" width="3" height="3" fill="#241f31"/>
<rect x="75" y="72" width="3" height="6" fill="#3d3846"/>
<rect x="75" y="69" width="3" height="3" fill="#241f31"/>
<rect x="81" y="72" width="3" height="6" fill="#3d3846"/>
<rect x="81" y="69" width="3" height="3" fill="#241f31"/>
<rect x="87" y="72" width="3" height="6" fill="#3d3846"/>
<rect x="87" y="69" width="3" height="3" fill="#241f31"/>
<rect x="93" y="72" width="3" height="6" fill="#3d3846"/>
<rect x="93" y="69" width="3" height="3" fill="#241f31"/>
<rect x="99" y="72" width="3" height="6" fill="#3d3846"/>
<rect x="99" y="69" width="3" height="3" fill="#241f31"/>
<rect x="105" y="72" width="3" height="6" fill="#3d3846"/>
<rect x="105" y="69" width="3" height="3" fill="#241f31"/>
<rect x="111" y="72" width="3" height="6" fill="#3d3846"/>
<rect x="111" y="69" width="3" height="3" fill="#241f31"/>
<rect x="8" y="58" width="84" height="18" ry="3" fill="#5e5c64"/>
<rect x="8" y="76" width="84" height="18" ry="3" fill="#5e5c64"/>
<rect x="8" y="94" width="84" height="18" ry="3.1761" fill="#5e5c64"/>
<rect x="8" y="109" width="84" height="15" ry="3" fill="url(#c)"/>
<rect x="8" y="49" width="84" height="15" ry="3" fill="#9a9996"/>
<rect x="8" y="67" width="84" height="15" ry="3" fill="#9a9996"/>
<rect x="8" y="85" width="84" height="15" ry="3" fill="#9a9996"/>
<rect x="8" y="103" width="84" height="15" ry="3" fill="#9a9996"/>
<rect x="44" y="52" width="45" height="9" ry="0" fill="#3d3846"/>
<rect x="44" y="55" width="45" height="6" ry="0" fill="#5e5c64"/>
<rect x="44" y="70" width="45" height="9" ry="0" fill="#3d3846"/>
<rect x="44" y="73" width="45" height="6" ry="0" fill="#5e5c64"/>
<rect x="44" y="88" width="45" height="9" ry="0" fill="#3d3846"/>
<rect x="44" y="91" width="45" height="6" ry="0" fill="#5e5c64"/>
<rect x="44" y="106" width="45" height="9" ry="0" fill="#3d3846"/>
<rect x="44" y="109" width="45" height="6" ry="0" fill="#5e5c64"/>
<rect x="14" y="52" width="3" height="6" ry="1.5" fill="#5e5c64"/>
<rect x="14" y="55" width="3" height="3" ry="1.5" fill="#f6d32d"/>
<rect x="20" y="52" width="3" height="6" ry="1.5" fill="#5e5c64"/>
<rect x="20" y="55" width="3" height="3" ry="1.5" fill="#33d17a"/>
<rect x="14" y="70" width="3" height="6" ry="1.5" fill="#5e5c64"/>
<rect x="14" y="73" width="3" height="3" ry="1.5" fill="#33d17a"/>
<rect x="20" y="70" width="3" height="6" ry="1.5" fill="#5e5c64"/>
<rect x="20" y="73" width="3" height="3" ry="1.5" fill="#e01b24"/>
<rect x="14" y="88" width="3" height="6" ry="1.5" fill="#5e5c64"/>
<rect x="14" y="91" width="3" height="3" ry="1.5" fill="#e01b24"/>
<rect x="20" y="88" width="3" height="6" ry="1.5" fill="#5e5c64"/>
<rect x="20" y="91" width="3" height="3" ry="1.5" fill="#f6d32d"/>
<rect x="14" y="106" width="3" height="6" ry="1.5" fill="#5e5c64"/>
<rect x="14" y="109" width="3" height="3" ry="1.5" fill="#f6d32d"/>
<rect x="20" y="106" width="3" height="6" ry="1.5" fill="#5e5c64"/>
<rect x="20" y="109" width="3" height="3" ry="1.5" fill="#33d17a"/>
<rect x="47" y="73" width="3" height="6" fill="#3d3846"/>
<rect x="47" y="70" width="3" height="3" fill="#241f31"/>
<rect x="53" y="73" width="3" height="6" fill="#3d3846"/>
<rect x="53" y="70" width="3" height="3" fill="#241f31"/>
<rect x="59" y="73" width="3" height="6" fill="#3d3846"/>
<rect x="59" y="70" width="3" height="3" fill="#241f31"/>
<rect x="65" y="73" width="3" height="6" fill="#3d3846"/>
<rect x="65" y="70" width="3" height="3" fill="#241f31"/>
<rect x="71" y="73" width="3" height="6" fill="#3d3846"/>
<rect x="71" y="70" width="3" height="3" fill="#241f31"/>
<rect x="77" y="73" width="3" height="6" fill="#3d3846"/>
<rect x="77" y="70" width="3" height="3" fill="#241f31"/>
<rect x="83" y="73" width="3" height="6" fill="#3d3846"/>
<rect x="83" y="70" width="3" height="3" fill="#241f31"/>
<rect x="47" y="55" width="3" height="6" fill="#3d3846"/>
<rect x="47" y="52" width="3" height="3" fill="#241f31"/>
<rect x="53" y="55" width="3" height="6" fill="#3d3846"/>
<rect x="53" y="52" width="3" height="3" fill="#241f31"/>
<rect x="59" y="55" width="3" height="6" fill="#3d3846"/>
<rect x="59" y="52" width="3" height="3" fill="#241f31"/>
<rect x="65" y="55" width="3" height="6" fill="#3d3846"/>
<rect x="65" y="52" width="3" height="3" fill="#241f31"/>
<rect x="71" y="55" width="3" height="6" fill="#3d3846"/>
<rect x="71" y="52" width="3" height="3" fill="#241f31"/>
<rect x="77" y="55" width="3" height="6" fill="#3d3846"/>
<rect x="77" y="52" width="3" height="3" fill="#241f31"/>
<rect x="83" y="55" width="3" height="6" fill="#3d3846"/>
<rect x="83" y="52" width="3" height="3" fill="#241f31"/>
<rect x="47" y="91" width="3" height="6" fill="#3d3846"/>
<rect x="47" y="88" width="3" height="3" fill="#241f31"/>
<rect x="53" y="91" width="3" height="6" fill="#3d3846"/>
<rect x="53" y="88" width="3" height="3" fill="#241f31"/>
<rect x="59" y="91" width="3" height="6" fill="#3d3846"/>
<rect x="59" y="88" width="3" height="3" fill="#241f31"/>
<rect x="65" y="91" width="3" height="6" fill="#3d3846"/>
<rect x="65" y="88" width="3" height="3" fill="#241f31"/>
<rect x="71" y="91" width="3" height="6" fill="#3d3846"/>
<rect x="71" y="88" width="3" height="3" fill="#241f31"/>
<rect x="77" y="91" width="3" height="6" fill="#3d3846"/>
<rect x="77" y="88" width="3" height="3" fill="#241f31"/>
<rect x="83" y="91" width="3" height="6" fill="#3d3846"/>
<rect x="83" y="88" width="3" height="3" fill="#241f31"/>
<rect x="47" y="109" width="3" height="6" fill="#3d3846"/>
<rect x="47" y="106" width="3" height="3" fill="#241f31"/>
<rect x="53" y="109" width="3" height="6" fill="#3d3846"/>
<rect x="53" y="106" width="3" height="3" fill="#241f31"/>
<rect x="59" y="109" width="3" height="6" fill="#3d3846"/>
<rect x="59" y="106" width="3" height="3" fill="#241f31"/>
<rect x="65" y="109" width="3" height="6" fill="#3d3846"/>
<rect x="65" y="106" width="3" height="3" fill="#241f31"/>
<rect x="71" y="109" width="3" height="6" fill="#3d3846"/>
<rect x="71" y="106" width="3" height="3" fill="#241f31"/>
<rect x="77" y="109" width="3" height="6" fill="#3d3846"/>
<rect x="77" y="106" width="3" height="3" fill="#241f31"/>
<rect x="83" y="109" width="3" height="6" fill="#3d3846"/>
<rect x="83" y="106" width="3" height="3" fill="#241f31"/>
<circle cx="52" cy="46" r="10" fill="#fff"/>
<path d="m52 28c-11.046 0-20 8.9543-20 20 0 10 10 20 20 30 10-10 20-20 20-30 0-11.046-8.9543-20-20-20zm0 10a10 10 0 0 1 10 10 10 10 0 0 1 -10 10 10 10 0 0 1 -10 -10 10 10 0 0 1 10 -10z" fill="#a51d2d"/>
<path d="m52 26c-11.046 0-20 8.9543-20 20 0 10 10 20 20 30 10-10 20-20 20-30 0-11.046-8.9543-20-20-20zm0 10a10 10 0 0 1 10 10 10 10 0 0 1 -10 10 10 10 0 0 1 -10 -10 10 10 0 0 1 10 -10z" fill="#e01b24"/>
</svg>
